<?xml version="1.0" encoding="utf-8"?>
<!-- Generator: Adobe Illustrator 21.1.0, SVG Export Plug-In . SVG Version: 6.00 Build 0)  -->
<svg version="1.1" id="Layer_1" xmlns="http://www.w3.org/2000/svg" xmlns:xlink="http://www.w3.org/1999/xlink" x="0px" y="0px"
	 viewBox="0 0 349.9 243" style="enable-background:new 0 0 349.9 243;" xml:space="preserve">
<style type="text/css">
	.st0{fill:#999999;}
</style>
<g>
	<g>
		<path class="st0" d="M176.6,182.1c-11.8,0-23.6,0-35.3,0c-1.7,0-2.8-0.2-3.4-2.2c-5.4-15.7-14.1-29.5-24.7-42.2
			c-11-13.2-18-28.1-19.6-45.2c-2.7-29.1,7-53.7,29-73c12.2-10.8,26.8-16.9,43-18.9c24.3-2.9,46.2,3.1,64.9,18.9
			c15.8,13.3,25.4,30.4,28.7,51c2.8,17.3,0,33.8-7.4,49.5c-3.3,7-7.9,13.2-12.8,19.2c-10,12.2-18.3,25.3-23.3,40.3
			c-0.7,2.1-1.7,2.6-3.7,2.5C200.1,182.1,188.4,182.1,176.6,182.1z M123.5,81.2c0,0.7,0,1.4,0,2c0.1,4.5,3.2,7.8,7.5,7.8
			c4.3,0,7.4-3.2,7.6-7.8c0.1-2.1,0.2-4.2,0.6-6.3c1.5-8.2,5.3-15.3,11.3-21c7.4-7.1,16.4-10.1,26.5-10.6c4.3-0.2,7.5-3.6,7.3-7.7
			c-0.2-4.1-3.4-7.2-7.5-7.3c-3.9-0.2-7.7,0.5-11.5,1.2C142.6,35.7,123.8,58.1,123.5,81.2z"/>
		<path class="st0" d="M176.8,197.6c11.5,0,23,0.1,34.4-0.1c2.4,0,3.4,0.5,3.3,3.2c-0.2,4.7-0.1,9.5,0,14.2c0.1,3.4-0.7,6.5-2.6,9.3
			c-3.1,4.6-5.8,9.4-9.3,13.6c-2.8,3.3-6.3,5.2-10.8,5.2c-9.8,0-19.7-0.1-29.5,0c-5.8,0.1-10-2.5-13.2-7c-2.7-3.8-5.3-7.8-7.9-11.8
			c-1.8-2.7-2.7-5.7-2.7-9c0.1-4.9,0.1-9.8,0-14.8c-0.1-2.4,0.8-2.9,3-2.9C153.3,197.7,165.1,197.6,176.8,197.6z"/>
	</g>
	<path class="st0" d="M329.2,175.6c-1.7,3.5-3.2,7.6-6.5,10.5c-1.9,1.6-4,0.4-5.9-0.6c-10.9-6.3-21.9-12.6-32.8-18.9
		c-5.8-3.3-11.4-6.8-17.3-9.9c-2.7-1.4-2.4-2.5-0.8-4.6c2.3-2.9,4.4-5.9,6.2-9c1.2-2.1,2.2-2.4,4.4-1.1
		c10.6,6.3,21.3,12.3,31.9,18.5c5.9,3.4,11.9,6.9,17.8,10.3C328,171.7,329.1,173,329.2,175.6z"/>
	<path class="st0" d="M29.6,186.8c-4-0.1-10-10.7-8.2-13.9c0.6-1.1,1.6-1.8,2.7-2.4c16.6-9.6,33.2-19.1,49.8-28.7
		c1.8-1,2.6-1,3.6,0.9c2,3.6,4.3,7,6.9,10.2c1.2,1.5,1.4,2.4-0.6,3.5c-17.1,9.8-34.1,19.7-51.2,29.5
		C31.5,186.4,30.5,186.9,29.6,186.8z"/>
	<path class="st0" d="M32.7,102.1c-8.9,0-17.8,0-26.6,0c-4.6,0-6-1.4-6-5.9C0,94,0,91.8,0,89.5c0.1-3,1.7-4.8,4.8-4.8
		c18.1,0,36.2,0,54.3,0c1.8,0,2.2,0.6,2.3,2.3c0.2,4.3,0.5,8.6,1.1,12.9c0.3,2.3-1,2.2-2.5,2.2C50.9,102.1,41.8,102.1,32.7,102.1z"
		/>
	<path class="st0" d="M317.3,102.1c-9.1,0-18.2-0.1-27.3,0c-2.4,0-3.1-0.6-2.6-3c0.7-3.9,1.3-7.9,1.1-11.9c-0.1-1.7,0.4-2.6,2.4-2.6
		c18,0.1,35.9,0,53.9,0.1c3.5,0,5,1.6,5.1,5.1c0.1,2.3,0.1,4.7,0,7c-0.1,3.7-1.6,5.2-5.3,5.2C335.5,102.2,326.4,102.1,317.3,102.1z"
		/>
	<path class="st0" d="M20.7,11.5c1.7-3.6,3.2-7.8,6.7-10.7c1.5-1.2,3.4-0.7,5,0.3c14,8.1,28,16.2,42.1,24.2c2,1.2,2.7,2.2,1.4,4.4
		c-2.2,3.4-3.8,7-5.3,10.7c-0.7,1.7-1.4,2.2-3.2,1.2C52.7,32.9,38,24.5,23.3,16C21.7,15.1,20.9,13.7,20.7,11.5z"/>
	<path class="st0" d="M329.2,11.4c-0.1,2.4-1.1,3.8-2.8,4.7c-14.6,8.4-29.2,16.8-43.8,25.3c-1.6,1-2.5,0.8-3.2-1
		c-1.6-4-3.5-7.9-5.7-11.6c-0.8-1.3-0.6-2.2,0.8-2.9c14.4-8.3,28.8-16.6,43.2-24.9c2.9-1.7,5.1-1.1,6.8,1.8
		C326.3,5.6,328.3,8.4,329.2,11.4z"/>
</g>
</svg>
