<?xml version="1.0" encoding="utf-8"?>
<!-- Generator: Adobe Illustrator 21.1.0, SVG Export Plug-In . SVG Version: 6.00 Build 0)  -->
<svg version="1.1" id="Layer_1" xmlns="http://www.w3.org/2000/svg" xmlns:xlink="http://www.w3.org/1999/xlink" x="0px" y="0px"
	 viewBox="0 0 167.1 243" style="enable-background:new 0 0 167.1 243;" xml:space="preserve">
<style type="text/css">
	.st0{fill:#FFFFFF;}
</style>
<g>
	<path class="st0" d="M83.4,182.1c-11.8,0-23.6,0-35.3,0c-1.7,0-2.8-0.2-3.4-2.2c-5.4-15.7-14.1-29.5-24.7-42.2
		c-11-13-18-28-19.6-45c-2.7-29.1,7-53.7,29-73c12.2-10.9,26.8-17,43-19c24.3-2.9,46.2,3.1,64.9,18.9c15.8,13.3,25.4,30.4,28.7,51
		c2.8,17.3,0,33.8-7.4,49.5c-3.3,7-7.9,13.2-12.8,19.2c-10,12.2-18.3,25.3-23.3,40.3c-0.7,2.1-1.7,2.6-3.7,2.5
		C107,182.1,95.2,182.1,83.4,182.1z M30.4,81.2c0,0.7,0,1.4,0,2c0.1,4.5,3.2,7.8,7.5,7.8s7.4-3.2,7.6-7.8c0.1-2.1,0.2-4.2,0.6-6.3
		c1.5-8.2,5.3-15.3,11.3-21c7.4-7.1,16.4-10.1,26.5-10.6c4.3-0.2,7.5-3.6,7.3-7.7s-3.4-7.2-7.5-7.3c-3.9-0.2-7.7,0.5-11.5,1.2
		C49.5,35.7,30.7,58.1,30.4,81.2z"/>
	<path class="st0" d="M83.7,197.6c11.5,0,23,0.1,34.4-0.1c2.4,0,3.4,0.5,3.3,3.2c-0.2,4.7-0.1,9.5,0,14.2c0.1,3.4-0.7,6.5-2.6,9.3
		c-3.1,4.6-5.8,9.4-9.3,13.6c-2.8,3.3-6.3,5.2-10.8,5.2c-9.8,0-19.7-0.1-29.5,0c-5.8,0.1-10-2.5-13.2-7c-2.7-3.8-5.3-7.8-7.9-11.8
		c-1.8-2.7-2.7-5.7-2.7-9c0.1-4.9,0.1-9.8,0-14.8c-0.1-2.4,0.8-2.9,3-2.9C60.2,197.7,71.9,197.6,83.7,197.6z"/>
</g>
</svg>
