<?xml version="1.0" encoding="utf-8"?>
<!-- Generator: Adobe Illustrator 21.1.0, SVG Export Plug-In . SVG Version: 6.00 Build 0)  -->
<svg version="1.1" id="Layer_1" xmlns="http://www.w3.org/2000/svg" xmlns:xlink="http://www.w3.org/1999/xlink" x="0px" y="0px"
	 viewBox="0 0 303.9 243" style="enable-background:new 0 0 303.9 243;" xml:space="preserve">
<style type="text/css">
	.st0{fill:#999999;}
</style>
<path class="st0" d="M235.6,81.7c-0.3,21.8-6.6,40-19.8,55.7c-2,2.4-3.7,4.9-5.7,7.3c-1,1.2-1.2,1.8,0.3,2.9
	c17.6,13.5,35.2,27.2,52.8,40.8c12.3,9.5,24.6,18.9,36.8,28.4c4.7,3.7,5.2,7.7,1.5,12.5c-2.6,3.4-5.3,6.9-8,10.3
	c-3.2,4.1-7.9,4.6-11.9,1.5c-16.8-13-33.7-26-50.5-39c-23.5-18.2-47-36.5-70.6-54.7c-16.1-12.4-32.2-24.8-48.2-37.3
	C87,90.5,61.7,70.9,36.4,51.4C25.6,43.1,14.9,34.8,4.1,26.5c-4.9-3.7-5.4-7.9-1.7-12.7c2.6-3.4,5.3-6.9,8-10.3
	c3.3-4.2,7.7-4.7,11.9-1.5C40.3,15.9,58.2,29.8,76,43.7c1.4,1.1,1.9,1,2.7-0.5c10.7-18.7,26.1-32,46.6-39c7.5-2.5,15.2-3.7,23.2-4.1
	c14.9-0.6,28.9,2.4,42,9.3c18.5,9.8,31.7,24.5,39.4,44.1C233.6,63,235.2,72.9,235.6,81.7z M159.7,37.7c0-3.8-3.4-7.2-7.6-7.3
	c-2.6-0.1-5.2,0.1-7.8,0.5c-19.3,3.3-33,13.9-41.2,31.6c-0.6,1.2-0.4,1.8,0.7,2.6c3.2,2.4,6.3,4.8,9.3,7.3c1.9,1.6,2.6,1.1,3.1-1.1
	c0.3-1.3,0.8-2.6,1.4-3.8c7.2-14,18.6-21.3,34.3-22.1C156.6,45.2,159.7,42,159.7,37.7z"/>
<path class="st0" d="M145.3,197.6c9.4,0,18.9,0,28.3,0c1.6,0,2.9,0.4,4.2,1.5c3.4,2.8,7,5.5,10.5,8.1c0.8,0.6,1.6,1,1.6,2.2
	c0.2,5.8,0.2,11.5-3.7,16.5c-2.9,3.7-5.2,7.8-8.1,11.6c-2.8,3.7-6.7,5.5-11.5,5.4c-9.6-0.1-19.3-0.2-28.9,0c-5.8,0.1-9.9-2.5-13.1-7
	c-2.7-3.8-5.3-7.8-7.9-11.8c-1.8-2.7-2.7-5.7-2.6-9c0.1-4.9,0.1-9.8,0-14.7c-0.1-2.4,0.8-2.9,3-2.9
	C126.4,197.7,135.8,197.6,145.3,197.6z"/>
<path class="st0" d="M79.4,123c25.3,19.5,50.6,39.1,75.9,58.7c-1.1,1.2-2.1,0.8-3,0.8c-11.8,0-23.5,0-35.3,0.1c-2.3,0-3.3-0.8-4-2.8
	c-5.5-16.2-14.6-30.2-25.5-43.2c-3.4-4-6.3-8.4-8.7-13.1C79,123.3,79.2,123.1,79.4,123z"/>
</svg>
