<?xml version="1.0" encoding="utf-8"?>
<!-- Generator: Adobe Illustrator 21.1.0, SVG Export Plug-In . SVG Version: 6.00 Build 0)  -->
<svg version="1.1" id="Layer_1" xmlns="http://www.w3.org/2000/svg" xmlns:xlink="http://www.w3.org/1999/xlink" x="0px" y="0px"
	 viewBox="0 0 273.3 243" style="enable-background:new 0 0 273.3 243;" xml:space="preserve">
<style type="text/css">
	.st0{fill:#FFFFFF;}
</style>
<g>
	<path class="st0" d="M112.3,243c-3.8-0.5-7.4-1.9-11.1-3c-2.2-0.6-4.5-1.2-6.7-1.9c-3.8-1.2-4.7-2.9-3.6-6.8
		c2.6-9.1,5.2-18.1,7.9-27.2c7.8-26.7,15.5-53.4,23.3-80.2c5.6-19.3,11.2-38.6,16.8-57.9c5.9-20.3,11.8-40.7,17.8-61
		c1.5-5.3,2.9-5.9,8.3-4.3c4.7,1.4,9.4,2.7,14.1,4.1c4,1.2,4.8,2.6,3.6,6.7c-5.4,18.7-10.8,37.3-16.2,56
		c-8.9,30.8-17.8,61.6-26.8,92.4c-7.1,24.6-14.3,49.2-21.5,73.8c-0.6,2.2-1.3,4.4-2,6.6C115.7,242.1,114.4,243.1,112.3,243z"/>
	<path class="st0" d="M86,73.9c0,1.2-0.5,2.3-1.4,3.1c-10.7,9.4-21.4,18.9-32,28.3c-5.6,4.9-11,9.9-16.7,14.7
		c-1.5,1.3-1.2,1.9,0.1,3.1c12.7,11.1,25.3,22.3,37.9,33.4c3.5,3.1,7,6.1,10.3,9.2c2.3,2.1,2.3,4.2,0.1,6.5
		c-3.9,4.2-7.8,8.3-11.7,12.4c-2.6,2.6-4.1,2.6-6.9,0.1c-9.5-8.9-19-17.8-28.5-26.7c-11.5-10.7-23-21.4-34.4-32.2
		c-3.9-3.7-3.9-5.1-0.1-8.7c17.3-16.3,34.7-32.7,52-49c3.8-3.6,7.7-7,11.5-10.6c2-1.9,3.9-1.8,5.8,0.1c4.2,4.4,8.4,8.8,12.5,13.2
		C85.4,71.8,85.9,72.8,86,73.9z"/>
	<path class="st0" d="M204.7,56.4c1.2,0,2.2,0.8,3.2,1.7c10.7,10.1,21.3,20.1,32,30.2c10.2,9.6,20.4,19.1,30.7,28.5
		c3.8,3.5,3.4,6.4,0.1,9.4c-9.1,8.3-18.1,16.8-27.1,25.3c-12,11.2-23.9,22.4-35.9,33.6c-2.5,2.3-4.4,2.3-6.8-0.1
		c-4.1-4.3-8.2-8.7-12.1-13.2c-1.7-1.9-1.4-4.1,0.8-6.1c6-5.4,12-10.8,18.1-16.2c7.9-7,15.9-14,23.8-21c2.1-1.9,4.1-3.8,6.2-5.6
		c1.1-1,1.1-1.6-0.1-2.7C224,108,210.3,95.9,196.6,83.7c-2.4-2.2-4.9-4.4-7.3-6.6c-2-1.8-2.1-4-0.4-5.9c4.2-4.7,8.5-9.2,12.8-13.7
		C202.4,56.8,203.4,56.4,204.7,56.4z"/>
</g>
</svg>
