<?xml version="1.0" encoding="utf-8"?>
<!-- Generator: Adobe Illustrator 21.1.0, SVG Export Plug-In . SVG Version: 6.00 Build 0)  -->
<svg version="1.1" id="Layer_1" xmlns="http://www.w3.org/2000/svg" xmlns:xlink="http://www.w3.org/1999/xlink" x="0px" y="0px"
	 viewBox="0 0 272.4 242.1" style="enable-background:new 0 0 272.4 242.1;" xml:space="preserve">
<style type="text/css">
	.st0{fill:#FFFFFF;}
</style>
<g>
	<path class="st0" d="M0,120.6c0-32.4,0-64.8,0-97.1C0,12,7.2,3.1,18.3,0.4C19.9,0,21.5,0,23.1,0c32,0,64,0,96,0
		c6.4,0,11.8,2.2,16.3,6.7c13.2,13.2,26.4,26.3,39.5,39.6c4.4,4.5,6.8,9.9,6.7,16.3c-0.1,3.6-0.1,7.1,0,10.7c0,1.6-0.3,2.4-2.2,2.4
		c-20.8-0.1-41.7,0-62.5-0.1c-6.1,0-10.8-5.1-10.8-11.5c-0.1-15.2-0.1-30.4,0-45.5c0-2.8-0.7-3.5-3.5-3.5c-26,0.1-52.1,0.1-78.1,0.1
		c-6.3,0-9,2.7-9,8.9c0,64.8,0,129.5,0,194.3c0,6,2.5,8.5,8.6,8.5c44.5,0,89,0,133.5,0c2.1,0,4.2,0,6.1-1.4c1.1-0.8,2.2-0.4,3.3-0.2
		c3.6,0.5,7.2,1.2,10.8,1.4c2.5,0.2,2.4,1.2,1.5,2.9c-3.5,6.6-8.8,10.7-16.2,12.2c-2.5,0.5-5,0.5-7.4,0.5c-43.6,0-87.2,0-130.9,0
		c-15,0-24.7-9.7-24.7-24.6C0,185.2,0,152.9,0,120.6z M143.5,60.6c5.9,0,11.9,0.1,17.8,0c1.5,0,3.8,1,4.4-0.7
		c0.6-1.5-1.3-2.8-2.5-3.9C150.9,43.5,138.4,31,126,18.6c-0.7-0.7-1.6-1.4-2.4-2c-0.6-0.4-1.2-1.2-2-0.8c-0.9,0.4-0.5,1.4-0.5,2.1
		c0,13.3,0,26.7-0.1,40c0,2.3,0.8,2.7,2.9,2.7C130.4,60.5,136.9,60.6,143.5,60.6z"/>
	<path class="st0" d="M242.2,149.4c0,14.1-3.6,25.9-11.1,36.2c-1.6,2.2-1.1,3.2,0.6,4.8c12.8,12.6,25.4,25.4,38.1,38.1
		c3.6,3.6,3.6,5.2-0.1,8.8c-6.2,6.3-6.2,6.3-12.4,0.1c-12-12-23.9-23.9-35.8-35.9c-1.9-2-3.1-2.3-5.7-0.6
		c-12.7,8.4-26.5,12.3-41.9,10.2c-17.7-2.4-31.6-11.1-41.9-25.4c-5.9-8.2-9.2-17.7-10.4-27.8c-1.9-16.4,2.4-31.2,12.5-44
		c9.6-12.3,22.2-20,38-22.3c13.5-2,26.4-0.1,38.2,6.3c15.3,8.3,25.6,21.1,29.9,38.1C241.4,140.8,242.5,145.7,242.2,149.4z
		 M181.9,106.1c-25-0.7-45.4,20.8-45.5,44.8c-0.1,25,20.2,45.7,45.3,45.8c25,0,45.5-20.5,45.4-45.7
		C227,125.4,205.7,105.5,181.9,106.1z"/>
</g>
</svg>
