<?xml version="1.0" encoding="utf-8"?>
<!-- Generator: Adobe Illustrator 21.1.0, SVG Export Plug-In . SVG Version: 6.00 Build 0)  -->
<svg version="1.1" id="Layer_1" xmlns="http://www.w3.org/2000/svg" xmlns:xlink="http://www.w3.org/1999/xlink" x="0px" y="0px"
	 viewBox="0 0 212.1 242.1" style="enable-background:new 0 0 212.1 242.1;" xml:space="preserve">
<style type="text/css">
	.st0{fill:#999999;}
</style>
<path class="st0" d="M0,143.3c0-24.2,0-48.4,0-72.6c0-4.1,0.5-8.2,2.3-12c4.3-9.2,11.9-13.3,21.6-13.5c11.2-0.3,22.5-0.1,33.7,0
	c2.2,0,2.9-0.6,3-2.9c0.1-7.4-0.3-14.8,0.3-22.2c0.9-10.5,10.6-20,21-20c28-0.1,56.1-0.1,84.1,0c5.5,0,10.3,2.2,14.2,6.1
	c8.6,8.5,17.3,17,25.6,25.7c4,4.2,6.1,9.4,6.1,15.4c0,42.2,0,84.3,0,126.5c0,12.8-10.1,22.9-22.8,22.9c-11.6,0-23.2,0.1-34.9,0
	c-2.3,0-3,0.6-2.9,2.9c0.2,6.4,0.1,12.9,0,19.3c0,13.2-10.1,23.3-23.3,23.3c-34.8,0-69.5,0-104.3,0c-12.2,0-22.7-8.9-23.5-21.3
	C0.2,218.4,0,216,0,213.6C0,190.2,0,166.8,0,143.3z M76,98c0,24.5,0,49,0,73.5c0,7.4,2.7,10.1,10,10.1c33.6,0,67.2,0,100.9,0
	c7.4,0,10.2-2.7,10.2-10.1c0-36,0-72,0.1-108.1c0-2.5-0.8-3-3.1-3c-9.9,0.1-19.8,0.1-29.7,0c-7.9,0-12.7-4.8-12.7-12.7
	c0-9.9-0.1-19.8,0.1-29.7c0-2.6-0.8-3.2-3.2-3.1c-21.1,0.1-42.3,0-63.4,0.1c-6.2,0-9,2.8-9,8.9C76,48.7,76,73.4,76,98z M15.4,143.6
	c0,24.8,0,49.6,0,74.4c0,6,2.6,8.7,8.5,8.7c34.7,0,69.4,0,104,0c5.6,0,8.5-2.9,8.5-8.5c0-6.1-0.1-12.3,0.1-18.4
	c0.1-2.7-0.9-3.1-3.3-3.1c-16.7,0.1-33.4,0.2-50.1,0c-7-0.1-12.7-3-17.2-8.4c-4.2-5-5.3-11-5.3-17.2c-0.1-35.6-0.1-71.3,0-106.9
	c0-2.7-0.6-3.6-3.4-3.6c-10.8,0.2-21.5,0.1-32.3,0.1c-6.8,0-9.4,2.6-9.4,9.3C15.4,94.5,15.4,119,15.4,143.6z M181.4,45.1
	c4.2,0,8.4,0,12.7,0c0.7,0,1.7,0.4,2.1-0.4c0.4-0.8-0.2-1.5-0.8-2c-8.6-8.6-17.2-17.2-25.9-25.8c-0.1-0.1-0.3-0.2-0.5-0.3
	c-0.6-0.4-1.2-1.1-2-0.7c-0.7,0.4-0.4,1.2-0.4,1.8c0,8.3,0,16.7,0,25c0,2,0.7,2.4,2.5,2.4C173.2,45,177.3,45.1,181.4,45.1z"/>
</svg>
