<?xml version="1.0" encoding="utf-8"?>
<!-- Generator: Adobe Illustrator 21.1.0, SVG Export Plug-In . SVG Version: 6.00 Build 0)  -->
<svg version="1.1" id="Layer_1" xmlns="http://www.w3.org/2000/svg" xmlns:xlink="http://www.w3.org/1999/xlink" x="0px" y="0px"
	 viewBox="0 0 243 243" style="enable-background:new 0 0 243 243;" xml:space="preserve">
<style type="text/css">
	.st0{fill:#FF0000;}
</style>
<path class="st0" d="M121.5,0C54.4,0,0,54.4,0,121.5S54.4,243,121.5,243S243,188.6,243,121.5S188.6,0,121.5,0z M194.2,171.8
	c-0.5,0.5-1,1-1.6,1.5c-6.9,6.9-13.8,13.8-20.7,20.7c-0.4,0.4-0.6,0.4-1,0c-16.3-16.3-32.6-32.6-48.8-48.9c-0.6-0.6-0.6-0.6-1.2,0
	c-16.3,16.3-32.5,32.5-48.8,48.8c-0.4,0.4-0.6,0.5-1.1,0c-7.4-7.4-14.7-14.8-22.1-22.1c-0.4-0.4-0.4-0.6,0-1
	c16.3-16.3,32.6-32.6,48.9-48.8c0.6-0.6,0.6-0.6,0-1.3C81.5,104.6,65.2,88.4,49,72.1c-0.4-0.4-0.5-0.7,0-1.1
	c7.4-7.4,14.7-14.7,22.1-22.1c0.1-0.1,0.2-0.2,0.2-0.2c0.1-0.1,0.3-0.1,0.5,0c0,0,0,0,0,0c0.1,0.1,0.2,0.2,0.3,0.3
	c16.3,16.3,32.5,32.5,48.8,48.8c0.6,0.6,0.6,0.6,1.2,0c16.3-16.3,32.5-32.5,48.8-48.8c0.5-0.5,0.7-0.4,1.1,0
	c7.3,7.3,14.6,14.6,21.9,21.9c0.6,0.6,0.6,0.6,0,1.3c-14.9,14.9-29.9,29.9-44.8,44.8c-1.4,1.4-2.8,2.8-4.3,4.2
	c-0.2,0.2-0.2,0.2,0,0.4c10.8,10.8,21.6,21.6,32.4,32.4c5.5,5.5,11.1,11.1,16.6,16.6c0.1,0.1,0.3,0.3,0.4,0.4
	C194.4,171.4,194.5,171.5,194.2,171.8z"/>
</svg>
