<?xml version="1.0" encoding="utf-8"?>
<!-- Generator: Adobe Illustrator 21.1.0, SVG Export Plug-In . SVG Version: 6.00 Build 0)  -->
<svg version="1.1" id="Layer_1" xmlns="http://www.w3.org/2000/svg" xmlns:xlink="http://www.w3.org/1999/xlink" x="0px" y="0px"
	 viewBox="0 0 243 243" style="enable-background:new 0 0 243 243;" xml:space="preserve">
<style type="text/css">
	.st0{fill:#FD0000;}
</style>
<path class="st0" d="M37.9,0.2c0.2-0.2,0.5-0.2,0.8,0c0,0,0,0,0,0c0.2,0.2,0.4,0.4,0.6,0.6C66.3,27.8,93.4,54.9,120.5,82
	c1,1,1,1,2,0c27.1-27.1,54.2-54.2,81.3-81.4c0.8-0.8,1.1-0.7,1.9,0C217.8,12.9,230,25,242.2,37.2c1.1,1.1,1.1,1.1,0,2.1
	c-24.9,24.9-49.8,49.8-74.7,74.7c-2.4,2.4-4.7,4.7-7.1,7.1c-0.3,0.3-0.3,0.4,0,0.7c18,18,36,36,54,54c9.2,9.2,18.5,18.5,27.7,27.7
	c0.2,0.2,0.4,0.4,0.6,0.6c0.4,0.4,0.5,0.7,0,1.1c-0.9,0.8-1.7,1.7-2.6,2.6c-11.5,11.5-23,23-34.5,34.6c-0.7,0.7-1,0.7-1.7,0
	c-27.1-27.2-54.3-54.3-81.4-81.4c-1-1-1-1-2,0c-27.1,27.1-54.2,54.2-81.3,81.4c-0.7,0.7-1,0.8-1.8,0c-12.3-12.3-24.5-24.6-36.9-36.9
	c-0.7-0.6-0.7-1,0-1.6c27.2-27.1,54.3-54.3,81.4-81.4c1-1,1-1,0-2.1C54.8,93.4,27.7,66.3,0.6,39.2c-0.7-0.7-0.8-1.1,0-1.9
	C12.9,25.1,25.2,12.8,37.4,0.5C37.6,0.4,37.7,0.3,37.9,0.2z"/>
</svg>
