<?xml version="1.0" encoding="utf-8"?>
<!-- Generator: Adobe Illustrator 21.1.0, SVG Export Plug-In . SVG Version: 6.00 Build 0)  -->
<svg version="1.1" id="Layer_1" xmlns="http://www.w3.org/2000/svg" xmlns:xlink="http://www.w3.org/1999/xlink" x="0px" y="0px"
	 viewBox="0 0 276.9 242.1" style="enable-background:new 0 0 276.9 242.1;" xml:space="preserve">
<style type="text/css">
	.st0{fill:#FFFFFF;}
</style>
<g>
	<path class="st0" d="M86.5,184.3c0,13.4-0.3,26.8,0.1,40.2c0.3,8.9-7.7,17.9-17.6,17.7c-17.1-0.4-34.3-0.4-51.4,0
		C7.4,242.3-0.4,232.4,0,224.6c0.4-8.4-0.1-16.9,0.1-25.4c0.5-22.8,5.4-44.7,14.8-65.5c5.3-11.7,11.1-23.1,14.9-35.4
		c2.8-9,4.3-18.3,4.5-27.7c0.3-9.1,5.6-16.3,13.8-18.1c1.5-0.3,3-0.4,4.6-0.4c15.8,0,31.6,0.1,47.4-0.1c2.8,0,3.7,1.1,3.8,3.5
		c0,0.9,0.1,1.8,0.1,2.6c0,25.6,0,51.2,0.1,76.8c0,2.9-0.7,3.9-3.6,3.7c-3.6-0.3-7.3,0.1-10.9-0.1c-2.7-0.2-3.3,0.9-3.2,3.4
		C86.5,156,86.5,170.1,86.5,184.3z"/>
	<path class="st0" d="M190.5,183.7c0-14.1-0.1-28.1,0.1-42.2c0-2.5-0.7-3.3-3.2-3.2c-3.7,0.2-7.5,0-11.2,0.1c-2,0.1-2.9-0.4-2.9-2.7
		c0.1-27,0.1-54,0-81c0-2.3,0.9-2.7,2.9-2.7c16.5,0.1,32.9,0,49.4,0.1c8.7,0.1,15.7,6.6,16.4,15.3c1,13.4,2.8,26.6,8,39.1
		c4.5,10.7,9.5,21.2,14,31.9c6.2,14.6,9.9,29.8,11.7,45.6c1.6,13.8,1.1,27.6,1.1,41.4c0,9-7.5,16.5-16.6,16.6
		c-17.9,0.1-35.8,0.1-53.7,0c-8.5-0.1-15.9-7.5-16-16.1C190.5,211.8,190.6,197.8,190.5,183.7C190.6,183.7,190.6,183.7,190.5,183.7z"
		/>
	<path class="st0" d="M155.7,95.4c0,13.2-0.1,26.3,0.1,39.5c0,2.6-0.6,3.6-3.4,3.6c-9.2-0.2-18.4-0.1-27.7,0c-2.5,0-3.4-0.5-3.4-3.2
		c0.1-26.7,0.1-53.3,0-80c0-2.3,0.5-3.3,3.1-3.3c9.4,0.1,18.9,0.1,28.3,0c2.6,0,3.1,0.9,3.1,3.3C155.7,68.6,155.7,82,155.7,95.4z"/>
	<path class="st0" d="M77.8,34.4c-7.6,0-15.2-0.1-22.7,0c-2.3,0-3-0.8-3-3c0.1-7.5,0-14.9,0.1-22.4c0-5.5,3.6-9,9.1-9
		c11.1,0,22.2,0,33.3,0c5.8,0,9.1,3.4,9.1,9.2c0,7.2-0.1,14.5,0.1,21.7c0.1,2.8-0.9,3.5-3.6,3.4C92.7,34.3,85.2,34.4,77.8,34.4z"/>
	<path class="st0" d="M198.9,34.4c-7.6,0-15.2-0.1-22.7,0c-2.1,0-2.9-0.5-2.9-2.8c0.1-7.8,0-15.6,0.1-23.4c0.1-4.5,3.6-8.2,8.1-8.2
		C193.3,0,205,0,216.8,0.1c4.6,0,8,3.7,8.1,8.3c0.1,7.8,0,15.6,0.1,23.4c0,2.3-1,2.7-3,2.7C214.3,34.4,206.6,34.4,198.9,34.4z"/>
</g>
</svg>
