<?xml version="1.0" encoding="utf-8"?>
<!-- Generator: Adobe Illustrator 21.1.0, SVG Export Plug-In . SVG Version: 6.00 Build 0)  -->
<svg version="1.1" id="Layer_1" xmlns="http://www.w3.org/2000/svg" xmlns:xlink="http://www.w3.org/1999/xlink" x="0px" y="0px"
	 viewBox="0 0 212.6 243" style="enable-background:new 0 0 212.6 243;" xml:space="preserve">
<style type="text/css">
	.st0{fill:#999999;}
</style>
<path class="st0" d="M106.2,242.9c-27.6,0-55.2-0.2-82.8,0.1c-10.9,0.1-20.4-7.4-22.9-17.2c-0.3-1.2-0.5-2.5-0.5-3.7
	c0-26.4-0.1-52.9,0-79.3c0-10.7,9.8-20.4,20.5-21.1c3.4-0.2,6.7-0.6,10.1-0.3c2.7,0.2,3.6-0.6,3.6-3.5c-0.1-15.6-0.1-31.3,0-46.9
	c0.1-15.6,5.2-29.7,14.6-42.1C61.2,12.3,77.9,2.5,98.5,0.4C119.3-1.7,138.1,4,154,18.2c12.2,10.8,19.8,24.2,23,40.1
	c1.5,7.3,1.8,14.7,1.3,22.2c-0.3,6-5,10.4-11,10.6c-5.3,0.2-10.6,0.2-15.9,0c-6.3-0.2-11-5.3-11.2-12.1c-0.1-5.4,0.3-10.7-1.1-16.1
	C135.8,50.2,124,40.4,111,38.3c-18.5-3-39,11.8-39,35c0,15,0.1,29.9-0.1,44.9c0,2.5,0.6,3.2,3.2,3.2c37.1-0.1,74.1-0.1,111.2,0
	c6.5,0,12.8,1,18.1,5.5c5.1,4.4,8.1,10,8.2,16.6c0.2,25.9,0.1,51.7,0.1,77.6c0,11.8-10.2,21.9-22.1,21.9
	C162.3,242.9,134.3,242.9,106.2,242.9z"/>
</svg>
