<?xml version="1.0" encoding="utf-8"?>
<!-- Generator: Adobe Illustrator 21.1.0, SVG Export Plug-In . SVG Version: 6.00 Build 0)  -->
<svg version="1.1" id="Layer_1" xmlns="http://www.w3.org/2000/svg" xmlns:xlink="http://www.w3.org/1999/xlink" x="0px" y="0px"
	 viewBox="0 0 212.5 243" style="enable-background:new 0 0 212.5 243;" xml:space="preserve">
<style type="text/css">
	.st0{fill:#999999;}
</style>
<path class="st0" d="M106.1,243c-27.4,0-54.8,0-82.2,0c-10.8,0-20.4-5.9-23.5-17.6C0.1,224,0,222.6,0,221.2c0-31-0.1-62.1,0-93.1
	c0-11.6,10.1-21.4,21.7-21.6c2.8,0,5.6,0,8.4,0c4,0,4,0,4-3.9c0-10.4,0-20.8,0-31.2c0-15.5,4.8-29.6,14.1-41.9
	C60.9,12.4,77.8,2.8,98.9,0.4c32.6-3.7,63.9,16.4,75,46.9c2.9,8.1,4.3,16.3,4.4,24.8c0.1,10.3,0.1,20.6,0,31c0,2.5,0.5,3.5,3.2,3.3
	c2.7-0.2,5.4-0.1,8.1,0c13.1,0.1,22.9,10.1,22.9,23.2c0,29.9,0,59.8,0,89.7c0,13.9-9.9,23.8-23.9,23.8
	C161.1,243,133.6,243,106.1,243z M106,106.4c10.4,0,20.8-0.1,31.2,0c2.2,0,3-0.4,3-2.9c-0.1-10.9,0-21.8-0.1-32.7
	C140.1,52.4,123,35,100.8,38.3c-17,2.6-28.8,17-28.9,34.2c-0.1,10.3,0.1,20.6-0.1,31c0,2.3,0.6,3,2.9,2.9
	C85.2,106.3,95.6,106.4,106,106.4z"/>
</svg>
