<?xml version="1.0" encoding="utf-8"?>
<!-- Generator: Adobe Illustrator 21.1.0, SVG Export Plug-In . SVG Version: 6.00 Build 0)  -->
<svg version="1.1" id="Layer_1" xmlns="http://www.w3.org/2000/svg" xmlns:xlink="http://www.w3.org/1999/xlink" x="0px" y="0px"
	 viewBox="0 0 243 243" style="enable-background:new 0 0 243 243;" xml:space="preserve">
<style type="text/css">
	.st0{fill:#999999;}
</style>
<path class="st0" d="M239.6,222.6c-0.1-0.1-0.2-0.2-0.4-0.4l-28.8-28.8l-6.8-6.8l-47.2-47.2c-0.3-0.3-0.6-0.6-1-0.9
	c11-14.5,17.6-32.5,17.6-52C173,38.9,134.1,0,86.5,0l0,0C38.9,0,0,38.9,0,86.5C0,134.1,38.9,173,86.5,173c19.5,0,37.5-6.6,52-17.6
	c0.3,0.3,0.6,0.7,0.9,1l44.6,44.6l0,0l2.9,2.9l3.9,3.9l0,0l31.5,31.5c4.6,4.8,12.2,5,17,0.4C244.1,235,244.3,227.4,239.6,222.6z
	 M86.5,151.4c-36,0-64.9-28.9-64.9-64.9c0-36,28.9-64.9,64.9-64.9c36,0,64.9,28.9,64.9,64.9C151.4,122.4,122.4,151.4,86.5,151.4z"/>
</svg>
