<?xml version="1.0" encoding="utf-8"?>
<!-- Generator: Adobe Illustrator 21.1.0, SVG Export Plug-In . SVG Version: 6.00 Build 0)  -->
<svg version="1.1" id="Layer_1" xmlns="http://www.w3.org/2000/svg" xmlns:xlink="http://www.w3.org/1999/xlink" x="0px" y="0px"
	 viewBox="0 -23.4 194.3 194.3" style="enable-background:new 0 0 194.3 147.5;" xml:space="preserve">
<style type="text/css">
	.st0{fill:none;stroke:#2B3990;stroke-width:5;stroke-miterlimit:10;}
</style>
<g>
	<path class="st0" d="M86.7,144.9c-21.7,0-43.4-0.1-65.1,0.1c-2.8,0-7-4.8-6.2-8.2c1.3-5.8,3.7-11.4,5.4-17
		c1.4-4.6,3.3-9.1,4.6-13.8c1.3-5.1,3.4-10.1,5.2-15.1c2.8-8.1,5.5-16.4,8.3-24.5c2-5.7,3.6-11.6,9.3-15.1c3.6-2.2,7.4-2.7,11.4-2.8
		c28.3,0,56.6,0,85,0c11.8,0,23.6,0,35.4,0c1.9,0,3.9,0.1,5.7,0.5c5.5,1.2,7.1,5.1,5.5,10.2c-3.5,11.4-7.3,22.6-11.2,33.8
		c-2.7,7.6-5.1,15.3-7.8,22.9c-2.5,6.8-4.2,14-7.6,20.4c-2.7,5.3-7.2,8.4-13.2,8.4c-21.6,0.1-43.2,0-64.8,0
		C86.7,144.9,86.7,144.9,86.7,144.9z"/>
	<path class="st0" d="M69.2,23.4c23.7,0,47.4,0,71.2,0.1c7.5,0,12.4,4.7,12.7,12.2c0.1,3.4,0,6.8,0.1,10.2c0,1.4-0.4,2-1.8,2
		c-3.2,0-6.4,0.3-9.6,0.3c-26.9,0.1-53.9,0.1-80.8,0.1c-11.3,0-17,4.5-20.4,15.4C37.2,73.9,33.5,84.1,30,94.3
		c-3.1,9.2-6.2,18.5-9.4,27.7c-0.9,2.5-1.3,5.2-3.1,7.4c-1.7,2.1-4.8,2.3-7.1,1c-5.7-3.1-7.3-8.2-7.3-14.2c0-21.1,0-42.1,0-63.2
		c0-2.6-0.4-5.3-0.5-7.9c-0.3-5.6,1.8-10.6,5.2-15c1.7-2.3,3.5-4.6,6-6.1c1.1-0.7,1.5-1.6,1.4-3C15,19,15.2,17,15.1,15
		C14.5,7.9,20.4,2.4,27.5,2.5c9.2,0.2,18.4,0.1,27.6,0c6.8-0.1,12.2,2.7,13.5,10.7c0,1.3-0.1,2.7,0,4C68.8,19.3,67.9,21.5,69.2,23.4
		z"/>
</g>
</svg>
