<svg xmlns="http://www.w3.org/2000/svg" viewBox="0 0 32 32">
  <path d="M16 4C10.886719 4 6.617188 7.160156 4.875 11.625L6.71875 12.375C8.175781 8.640625 11.710938 6 16 6C19.242188 6 22.132813 7.589844 23.9375 10L20 10L20 12L27 12L27 5L25 5L25 8.09375C22.808594 5.582031 19.570313 4 16 4 Z M 25.28125 19.625C23.824219 23.359375 20.289063 26 16 26C12.722656 26 9.84375 24.386719 8.03125 22L12 22L12 20L5 20L5 27L7 27L7 23.90625C9.1875 26.386719 12.394531 28 16 28C21.113281 28 25.382813 24.839844 27.125 20.375Z" fill="#FFFFFF" />
</svg>