<?xml version="1.0" encoding="utf-8"?>
<!-- Svg Vector Icons : http://www.onlinewebfonts.com/icon -->
<!DOCTYPE svg PUBLIC "-//W3C//DTD SVG 1.1//EN" "http://www.w3.org/Graphics/SVG/1.1/DTD/svg11.dtd">
<svg version="1.1" xmlns="http://www.w3.org/2000/svg" xmlns:xlink="http://www.w3.org/1999/xlink" x="0px" y="0px" viewBox="0 0 1000 1000" enable-background="new 0 0 1000 1000" xml:space="preserve">
<metadata> Svg Vector Icons : http://www.onlinewebfonts.com/icon </metadata>
<g><g transform="translate(0.000000,511.000000) scale(0.100000,-0.100000)"><path d="M5038.3,4969.3c-28.5-22.4-113.9-144.4-189.1-272.4c-101.7-172.8-154.5-241.9-201.3-264.3c-44.7-20.3-148.4-30.5-341.6-34.6c-229.7-4.1-284.6,0-327.3,28.5c-28.5,18.3-117.9,130.1-197.2,248.1c-81.3,117.9-166.7,227.7-189.1,244c-83.4,59-185,36.6-494.1-105.7c-172.8-79.3-311.1-156.6-335.5-185c-52.9-69.1-48.8-136.2,26.4-431c75.2-300.9,71.2-335.5-61-465.6c-52.9-52.9-142.3-146.4-201.3-209.4c-65.1-71.2-128.1-120-166.7-128.1c-36.6-8.1-164.7,8.1-325.3,40.7c-235.9,46.8-270.4,48.8-331.4,24.4c-36.6-16.3-77.3-40.7-89.5-56.9c-42.7-52.9-252.1-640.5-252.1-703.5c0-93.5,63-154.5,315.1-298.9c142.3-83.4,235.8-150.5,258.2-187.1c26.4-46.8,34.6-124,40.7-357.8c8.1-353.8,22.4-325.3-303-546.9c-223.7-152.5-250.1-183-250.1-284.6c0-71.2,246-634.4,302.9-695.4c71.2-73.2,142.3-75.2,420.9-2c166.7,44.7,286.7,65.1,327.3,59c46.8-8.1,124-65.1,254.2-187.1C2832.2,101.9,2927.8,4.3,2942-20.1c34.6-61,32.5-156.5-14.2-394.4c-22.4-113.9-40.7-235.9-40.7-268.4c0-109.8,83.4-168.8,418.8-292.8c166.7-63,329.4-113.9,357.8-113.9c83.4,0,164.7,85.4,286.7,300.9c170.8,298.9,164.7,294.8,508.3,311.1c229.8,10.2,300.9,8.1,351.7-16.3c42.7-18.3,115.9-103.7,229.8-270.4c166.7-244,201.3-272.5,317.2-268.4c71.2,4.1,607.9,246,675,305c77.3,69.1,79.3,136.2,10.2,402.6C5945.1,51,5936.9,24.6,6233.8,329.6c176.9,183,185,187.1,276.5,187.1c50.8,0,183-18.3,290.7-40.7c107.8-22.4,223.7-40.7,256.2-40.7c111.8,0,172.8,85.4,292.8,412.7c61,166.7,111.8,323.3,111.8,351.7c0,107.8-54.9,162.7-278.6,288.7c-323.3,181-319.2,172.8-333.4,508.3c-8.1,199.3-6.1,296.8,12.2,341.6c28.5,67.1,99.6,128.1,341.6,290.7c183,122,231.8,201.3,199.2,313.1c-20.3,73.2-237.9,551-280.6,616.1c-16.3,24.4-56.9,56.9-91.5,71.2c-56.9,22.4-91.5,18.3-311.1-38.6c-264.3-69.1-353.8-77.3-418.8-44.7c-20.3,12.2-91.5,73.2-154.5,138.2c-65.1,63-156.6,150.5-203.3,193.2c-115.9,103.7-122,156.6-58.9,471.7c44.7,225.7,48.8,264.3,24.4,321.2c-14.2,36.6-40.7,77.3-56.9,89.5c-52.9,44.7-624.2,250.1-695.4,250.1C5119.6,5010,5064.7,4991.7,5038.3,4969.3z M4645.8,3231c461.5-81.3,839.7-414.8,1000.3-882.4c46.8-132.2,54.9-189.1,54.9-388.3c0-201.3-8.2-256.2-57-396.5c-140.3-408.7-429-697.4-825.5-831.6c-321.2-105.7-654.7-83.4-965.8,65.1c-662.8,321.3-923.1,1106.1-583.5,1762.8c109.8,213.5,351.8,447.3,573.4,557.1C4111.1,3249.2,4351,3283.8,4645.8,3231z"/><path d="M7354.1-162.5c-16.3-16.3-40.7-71.2-54.9-122c-30.5-111.8-56.9-136.2-181-168.8c-140.3-36.6-154.5-34.6-266.3,65.1c-56.9,50.8-109.8,91.5-120,91.5c-28.4,0-246-164.7-264.3-201.3c-16.3-26.4-4.1-69.1,38.6-162.7l61-126l-65.1-111.8c-69.1-126.1-113.9-150.5-258.2-150.5c-54.9,0-107.8-12.2-120-24.4c-30.5-38.6-67.1-302.9-46.8-337.5c10.2-18.3,71.2-50.8,136.2-73.2c134.2-48.8,164.7-89.4,183-250.1c12.2-93.5,8.1-101.7-71.2-178.9c-54.9-50.8-83.3-97.6-83.3-132.2c0-63,168.8-284.6,219.6-284.6c18.3,0,71.2,22.4,115.9,50.8c103.7,63,154.5,63,260.3-4.1c122-77.3,136.2-101.7,136.2-231.8c0-75.2,10.2-124,28.5-140.3c16.3-12.2,95.5-32.5,174.8-44.7c128.1-18.3,148.4-18.3,183,14.2c22.3,20.3,40.6,48.8,40.6,63c0,16.3,14.2,65.1,32.5,109.8c26.4,65.1,46.8,85.4,107.8,101.7c195.2,52.9,195.2,52.9,302.9-48.8c54.9-50.8,111.8-93.5,126.1-93.5c38.7,0,262.3,168.8,274.5,207.4c6.1,18.3-12.2,79.3-40.7,136.2c-65.1,132.2-65.1,154.5,16.3,276.5c69.1,107.8,109.8,126.1,262.3,130.1c115.9,2,128.1,20.3,148.4,219.6c12.2,138.3,12.2,146.4-34.6,174.8c-24.4,18.3-87.4,42.7-136.2,56.9c-93.5,28.5-103.7,42.7-144.3,205.4l-26.4,97.6l95.6,109.8c50.8,61,93.5,124,93.5,138.3c0,40.7-156.5,246-201.3,266.3c-26.4,12.2-69.1,2-140.3-34.6c-134.2-67.1-156.6-67.1-278.6,14.2l-101.7,65.1l-10.2,136.2c-6.1,75.2-18.3,144.3-30.5,156.6c-18.3,16.3-239.9,63-309,63C7394.7-134,7370.3-146.2,7354.1-162.5z M7600.1-953.4c231.8-113.9,343.6-396.5,258.2-646.6c-42.7-126.1-128.1-221.6-256.2-292.8c-89.5-48.8-134.2-59-242-59c-73.2,2.1-164.7,16.3-205.4,32.5c-189.1,81.3-323.3,282.6-323.3,481.9c0,160.6,38.6,260.3,142.3,372.1C7136.5-886.3,7382.5-843.6,7600.1-953.4z"/><path d="M4261.6-1099.7c-16.3-16.3-40.7-83.4-52.9-148.4c-12.2-63-26.4-140.3-32.5-170.8c-14.2-69.1-44.7-93.5-207.4-162.7c-183-77.3-225.7-73.2-370,32.5c-138.2,101.7-189.1,124-231.8,99.6c-16.3-8.1-97.6-81.3-183-160.6c-111.8-105.7-154.5-158.6-154.5-195.2c0-28.4,46.8-117.9,101.7-201.3c115.9-168.8,115.9-178.9,34.6-372.1c-71.2-166.7-101.7-189.1-278.6-215.5c-244-38.6-244-38.6-244-323.3c0-286.7,2-290.8,223.7-327.3c83.4-14.2,170.8-36.6,193.2-50.8c42.7-26.4,156.6-292.8,158.6-366c0-24.4-48.8-113.9-107.8-197.2c-75.2-107.8-101.7-164.7-93.5-193.2c8.1-22.4,79.3-109.8,160.6-195.2c178.9-191.1,207.4-195.2,390.4-67.1c71.2,48.8,146.4,95.5,170.8,103.7c44.7,14.2,313.1-93.5,372.1-150.5c20.3-18.3,44.7-93.5,59-185c38.6-244,36.6-244,319.2-244c130.1,0,248.1,8.1,262.3,16.3c34.6,22.4,61,101.7,77.3,235.9c10.2,75.2,30.5,134.2,59,164.7c44.7,52.9,276.5,152.5,345.6,152.5c24.4,0,107.8-44.7,185-101.7s162.6-101.7,191.1-101.7c71.2,0,368,296.8,368,368c0,28.5-40.7,109.8-91.5,181c-50.8,71.2-97.6,146.4-103.7,168.8c-6.1,22.4,18.3,105.7,63,207.4c85.4,191.1,93.5,197.2,331.4,233.8c195.2,32.5,207.4,48.8,207.4,321.2c0,264.3-18.3,290.7-248.1,327.4c-83.3,14.2-166.7,34.6-185,48.8c-34.6,26.4-156.6,309.1-156.6,361.9c0,18.3,46.8,97.6,101.7,176.9c140.3,199.2,136.2,219.6-56.9,414.8c-105.7,105.7-174.9,158.6-205.4,158.6c-26.4,0-111.8-44.7-191.1-101.7c-79.3-54.9-158.6-101.7-174.9-101.7c-59,0-351.7,132.2-370,168.8c-12.2,20.3-34.6,111.8-48.8,203.3c-20.3,107.8-42.7,174.9-65.1,193.1C4731.2-1055,4302.2-1059.1,4261.6-1099.7z M4660.1-2169.2c246-52.9,441.2-209.4,551-441.2c56.9-120,65.1-156.6,63-309c0-128.1-12.2-203.3-46.8-290.8c-61-154.5-225.7-333.4-382.2-410.7c-107.8-56.9-136.2-61-331.4-61c-189.1,0-225.7,6.1-329.4,54.9c-150.5,69.1-309,227.7-378.2,378.2c-48.8,101.7-54.9,140.3-54.9,319.2c0,176.9,6.1,217.6,54.9,319.2c99.6,215.5,282.6,372.1,504.2,431C4448.6-2142.8,4521.8-2140.8,4660.1-2169.2z"/></g></g>
</svg>