<?xml version="1.0" encoding="utf-8"?>
<!-- Generator: Adobe Illustrator 21.1.0, SVG Export Plug-In . SVG Version: 6.00 Build 0)  -->
<svg version="1.1" id="Layer_1" xmlns="http://www.w3.org/2000/svg" xmlns:xlink="http://www.w3.org/1999/xlink" x="0px" y="0px"
	 viewBox="0 0 216.2 242.1" style="enable-background:new 0 0 216.2 242.1;" xml:space="preserve">
<style type="text/css">
	.st0{fill:#FFFFFF;}
</style>
<g>
	<path class="st0" d="M0,5.7C0,1.9,2.6,0,7.8,0h198.5l9.9,79.8H207c-2.1-15.6-5-27.9-8.7-36.9c-3.7-9-9.4-15.9-17.2-20.8
		c-7.8-4.8-16.5-7.9-26-9.2c-9.6-1.3-23.1-1.9-40.7-1.9H40l69.6,100.6c3.3,4.7,5,7.8,4.8,9.3c0,2.1-2,5.3-6.1,9.5l-85.7,96.8h84.6
		c10.8,0,19.7-0.2,26.6-0.5c6.9-0.3,14-1,21.3-2s13.1-2.5,17.4-4.4c4.3-2,8.5-4.6,12.8-7.8s7.6-7.4,10.1-12.5
		c2.5-5.1,4.7-11,6.7-17.9s3.6-14.9,4.8-24h9.2l-9.9,83.9H7.4c-4.7,0-7.1-1.4-7.1-4.3c0-1.4,1.4-3.8,4.2-7.1l83.8-94.2
		c-2.3-3.1-5.7-8-10-14.5L3.5,13.8C1.2,9.6,0,6.9,0,5.7z"/>
</g>
</svg>
