<?xml version="1.0" encoding="utf-8"?>
<!-- Generator: Adobe Illustrator 21.1.0, SVG Export Plug-In . SVG Version: 6.00 Build 0)  -->
<svg version="1.1" id="Layer_1" xmlns="http://www.w3.org/2000/svg" xmlns:xlink="http://www.w3.org/1999/xlink" x="0px" y="0px"
	 viewBox="0 0 272.6 242.1" style="enable-background:new 0 0 272.6 242.1;" xml:space="preserve">
<style type="text/css">
	.st0{fill:#FFFFFF;}
</style>
<g>
	<path class="st0" d="M94.2,21.5c3.6-2.9,6.7-5.7,10.2-8.1c13.9-9.6,29.5-14.2,46.3-13.3c19.2,0.9,35.8,8.3,49.6,21.8
		c7.9,7.7,15.6,15.4,23.2,23.4c6.5,6.9,8.1,15.6,6.7,24.7c-0.3,1.8-0.1,3.1,1.3,4.4c3.6,3.5,7.2,7,10.6,10.6c1.3,1.4,2.3,1.4,3.5,0
		c1.1-1.3,2.4-2.5,3.7-3.7c3.5-3.1,7.5-3.1,10.8,0.2c3.3,3.2,6.6,6.5,9.8,9.8c3.5,3.7,3.6,7.4,0.1,10.9c-14,14.1-28,28.1-42.1,42.1
		c-3.6,3.6-7.3,3.5-11,0.1c-3.4-3.3-6.8-6.6-10-10c-3.2-3.4-3.2-7.3,0-10.8c1.2-1.3,2.4-2.5,3.7-3.7c1.4-1.2,1.2-2.1,0-3.3
		c-3.7-3.6-7.3-7.4-11.1-11c-0.8-0.7-2.4-1.2-3.5-1c-11.1,2-20.3-1.5-28.1-9.3c-6.9-6.9-13.7-13.9-20.7-20.6
		c-7-6.7-10.4-14.7-10.2-24.5c0.2-8.9,1.3-6.7-6.6-10.7c-11-5.6-22.1-11-33.1-16.6C96.4,22.7,95.6,22.3,94.2,21.5z"/>
	<path class="st0" d="M129.7,79.7c10.9,11,21.6,21.8,32.6,32.8c-1,1.2-2.2,2.6-3.5,4c-25.8,27.6-51.6,55.2-77.3,82.8
		c-10.3,11-20.5,22-30.8,33c-8.2,8.7-18.2,11.9-29.7,8.7c-11.7-3.3-18.8-11.5-20.7-23.6c-1.6-10.2,2-18.9,9.6-26
		c24.6-22.9,49.1-45.9,73.7-68.9c14.6-13.7,29.3-27.4,43.9-41C128.2,80.9,128.9,80.4,129.7,79.7z"/>
</g>
</svg>
