<?xml version="1.0" encoding="utf-8"?>
<!-- Generator: Adobe Illustrator 21.1.0, SVG Export Plug-In . SVG Version: 6.00 Build 0)  -->
<svg version="1.1" id="Layer_1" xmlns="http://www.w3.org/2000/svg" xmlns:xlink="http://www.w3.org/1999/xlink" x="0px" y="0px"
	 viewBox="0 0 203.9 243" style="enable-background:new 0 0 203.9 243;" xml:space="preserve">
<style type="text/css">
	.st0{fill:#FFFFFF;}
</style>
<g>
	<path class="st0" d="M201.2,0l2.7,57h-6.8c-1.3-10-3.1-17.2-5.4-21.5c-3.7-6.9-8.6-12-14.8-15.3c-6.2-3.3-14.2-4.9-24.3-4.9h-34.2
		v185.7c0,14.9,1.6,24.3,4.8,28c4.5,5,11.5,7.5,21,7.5h8.4v6.6h-103v-6.6h8.6c10.3,0,17.6-3.1,21.9-9.3c2.6-3.8,3.9-12.5,3.9-26.2
		V15.2H54.8c-11.3,0-19.4,0.8-24.2,2.5c-6.2,2.3-11.5,6.6-15.9,13.1S7.6,46,6.8,57H0L2.9,0H201.2z"/>
</g>
</svg>
