<?xml version="1.0" encoding="utf-8"?>
<!-- Generator: Adobe Illustrator 21.1.0, SVG Export Plug-In . SVG Version: 6.00 Build 0)  -->
<svg version="1.1" id="Layer_1" xmlns="http://www.w3.org/2000/svg" xmlns:xlink="http://www.w3.org/1999/xlink" x="0px" y="0px"
	 viewBox="0 0 243 243" style="enable-background:new 0 0 243 243;" xml:space="preserve">
<style type="text/css">
	.st0{fill:#2B3990;}
</style>
<path class="st0" d="M121.5,0C54.4,0,0,54.4,0,121.5S54.4,243,121.5,243S243,188.6,243,121.5S188.6,0,121.5,0z M199.6,76.1
	c-4.6,4.7-9.2,9.4-13.9,14c-23.4,23.7-46.8,47.4-70.2,71c-7.6,7.7-15.3,15.5-22.9,23.2c-0.7,0.7-0.7,0.7-1.3,0
	c-15.9-15.4-31.8-30.8-47.7-46.2c-0.9-0.9-1-0.9-0.1-2c5.8-7.2,12.3-13.7,19.4-19.5c0.4-0.3,0.6-0.2,0.9,0.1
	c5.3,5,10.6,10,15.8,14.9c4,3.8,7.9,7.6,11.8,11.5c0.5,0.5,0.7,0.2,1-0.1c6.1-5.9,12.3-11.9,18.4-17.8c23-22.3,46.1-44.6,69.1-66.9
	c0.5-0.5,0.8-0.5,1.4,0c6.1,5.4,12.3,10.9,18.2,16.6c0.2,0.2,0.4,0.3,0.5,0.6C200,75.8,199.8,76,199.6,76.1z"/>
</svg>
