<?xml version="1.0" encoding="utf-8"?>
<!-- Generator: Adobe Illustrator 21.1.0, SVG Export Plug-In . SVG Version: 6.00 Build 0)  -->
<svg version="1.1" id="Layer_1" xmlns="http://www.w3.org/2000/svg" xmlns:xlink="http://www.w3.org/1999/xlink" x="0px" y="0px"
	 viewBox="0 0 300.9 243" style="enable-background:new 0 0 300.9 243;" xml:space="preserve">
<style type="text/css">
	.st0{fill:#2B3990;}
</style>
<path class="st0" d="M300.9,33.6c-0.1,0.5-0.5,0.8-0.8,1.1c-8.8,9-17.7,17.9-26.6,26.9c-44.8,45.3-89.6,90.7-134.4,136
	c-14.6,14.8-29.3,29.6-43.9,44.5c-1.3,1.3-1.3,1.3-2.6,0.1c-30.4-29.5-60.9-59-91.3-88.5c-1.8-1.8-1.8-1.8-0.2-3.7
	c11.1-13.7,23.6-26.2,37.2-37.4c0.8-0.6,1.2-0.4,1.7,0.2c10.1,9.5,20.2,19.1,30.3,28.6c7.6,7.2,15.2,14.5,22.6,22
	c0.9,0.9,1.3,0.5,2-0.2c11.7-11.4,23.5-22.8,35.3-34.2c44.1-42.7,88.2-85.4,132.3-128.2c1-1,1.6-0.9,2.6,0
	C277,11.1,288.8,21.5,300,32.5C300.4,32.8,300.8,33.1,300.9,33.6z"/>
</svg>
