<?xml version="1.0" encoding="utf-8"?>
<!-- Generator: Adobe Illustrator 21.1.0, SVG Export Plug-In . SVG Version: 6.00 Build 0)  -->
<svg version="1.1" id="Layer_1" xmlns="http://www.w3.org/2000/svg" xmlns:xlink="http://www.w3.org/1999/xlink" x="0px" y="0px"
	 viewBox="0 0 176.6 176.6" style="enable-background:new 0 0 176.6 176.6;" xml:space="preserve">
<style type="text/css">
	.st0{fill:none;stroke:#2B3990;stroke-width:5;stroke-miterlimit:10;}
	.st1{fill:#2B3990;stroke:#2B3990;stroke-miterlimit:10;}
</style>
<g>
	<circle class="st0" cx="88.3" cy="88.3" r="85.8"/>
	<g>
		<path class="st1" d="M85,106.7V95.6c0-1.9,0-4.1,0.9-6c1.2-2.9,6.1-6.7,8.6-8.6c4.5-3.6,6.9-6.8,6.9-12.9
			c0-8.6-5.2-14.5-13.9-14.5c-7.8,0-13,5.1-13.2,12.7h-5.6c0.9-10.8,8.1-17.3,18.9-17.3c12,0,19.1,7.6,19.1,19.4
			c0,8.7-3.4,12.2-9.8,17.3c-6.7,5.3-6.5,6-6.5,14v6.9H85z M88.6,118.3c2.5,0,4.6,2.1,4.6,4.6s-2.1,4.5-4.6,4.5s-4.5-2-4.5-4.5
			S86.1,118.3,88.6,118.3z"/>
	</g>
	<g>
	</g>
</g>
</svg>
