<?xml version="1.0" encoding="utf-8"?>
<!-- Generator: Adobe Illustrator 21.1.0, SVG Export Plug-In . SVG Version: 6.00 Build 0)  -->
<svg version="1.1" id="Layer_1" xmlns="http://www.w3.org/2000/svg" xmlns:xlink="http://www.w3.org/1999/xlink" x="0px" y="0px"
	 viewBox="0 0 126.1 243" style="enable-background:new 0 0 126.1 243;" xml:space="preserve">
<style type="text/css">
	.st0{fill:#FFFFFF;}
</style>
<g>
	<path class="st0" d="M65.7,243c-11.6,0-21.1-9.5-21.1-21.1c0-11.8,9.5-21.4,21.1-21.4c11.8,0,21.4,9.6,21.4,21.4
		C87,233.5,77.4,243,65.7,243z M55.2,183c-4.5,0-8.1-3.5-8.1-7.9v-32.1c0-6.1,0-13.7,3.4-20.8c3.8-9.1,15.9-19.2,27.3-27.9
		c11.3-9.1,16.8-16,16.8-30.9c0-21.2-12-33.9-32.2-33.9c-18.1,0-29.7,11.1-30.1,28.9c-0.1,4.4-3.7,7.9-8.1,7.9H8.1
		c-2.3,0-4.4-0.9-5.9-2.6c-1.5-1.7-2.3-3.9-2.1-6.1C3,22,27,0,62.8,0c38.5,0,63.3,25.2,63.3,64.2c0,29.2-12.4,41.3-31.4,56.4
		c-15.8,12.5-15.8,12.5-15.8,32.2v21.9c0,4.5-3.6,8.1-8.1,8.1H56.7C56.3,182.9,55.7,183,55.2,183z"/>
	<path class="st0" d="M55.2,175v-32.1c0-5.5,0-11.9,2.6-17.4c3.5-8.4,17.7-19.4,24.9-24.9c13-10.4,20-19.7,20-37.3
		c0-24.9-15-42-40.2-42c-22.6,0-37.6,14.8-38.2,36.7H8.1C10.7,26.9,31.5,8.1,62.8,8.1c34.7,0,55.3,22,55.3,56.1
		c0,25.2-9.8,35.3-28.4,50.1c-19.4,15.3-18.8,17.4-18.8,40.5v20H55.2V175z M65.7,208.6c7.2,0,13.3,6.1,13.3,13.3
		c0,7.2-6.1,13-13.3,13c-7.2,0-13-5.8-13-13C52.6,214.7,58.4,208.6,65.7,208.6z"/>
</g>
</svg>
