<?xml version="1.0" encoding="utf-8"?>
<!-- Generator: Adobe Illustrator 21.1.0, SVG Export Plug-In . SVG Version: 6.00 Build 0)  -->
<svg version="1.1" id="Layer_1" xmlns="http://www.w3.org/2000/svg" xmlns:xlink="http://www.w3.org/1999/xlink" x="0px" y="0px"
	 viewBox="0 0 7083.1 1474.9" style="enable-background:new 0 0 7083.1 1474.9;" xml:space="preserve">
<style type="text/css">
	.st0{display:none;fill:url(#SVGID_1_);stroke:#03417F;stroke-width:5;}
	.st1{fill:#8088BC;}
	.st2{fill:#5561A6;}
	.st3{fill:#D5D7E9;}
	.st4{fill:#AAB0D3;}
	.st5{fill:#2B3990;}
	.st6{fill:#202B6C;}
	.st7{fill:#161D48;}
	.st8{stroke:#000000;stroke-width:25;stroke-miterlimit:10;}
</style>
<linearGradient id="SVGID_1_" gradientUnits="userSpaceOnUse" x1="4523.3667" y1="425.9446" x2="4524.3667" y2="425.9446" gradientTransform="matrix(541 0 0 745 -2445466 -316652.3438)">
	<stop  offset="0.3086" style="stop-color:#007FFF"/>
	<stop  offset="1" style="stop-color:#00007F;stop-opacity:0.9961"/>
	<stop  offset="1" style="stop-color:#FF8000"/>
</linearGradient>
<path class="st0" d="M2216.4,763.9v33c-2.2,6.1-0.3,14.6-3,21c-12.4,108-104.8,206.1-212,225c-10.9,4.3-23.8,4.2-35,6h-41
	c-11.2-1.8-24.1-1.7-35-6c-115.6-19.9-209.8-131.3-215-247v-34c3.7-22.6,8.3-46.1,17.3-67.7c9-17.4,18.3-34.7,29-51l34-46
	c76.1-90.4,142.7-187.5,192.8-293.3l13.8,29.3c41.4,100.9,106.7,190.1,178,274.1c7.7,11.3,16,22.3,25,33c13.4,20.6,26.5,41.4,37,64
	C2209.4,723.3,2213.9,743.9,2216.4,763.9z"/>
<g>
	<g>
		<path d="M1707.8,1029.9h2l42-643h55l-56,727h-63l-105-362l-104,362h-63l-56-727h55l42,643h2l124-400L1707.8,1029.9z"/>
		<path d="M2393.8,1106.9h-53l-65-219h-245l-66,219h-52l240-749L2393.8,1106.9z M2040.8,847.9h225l-113-362L2040.8,847.9z"/>
		<path d="M2947.8,426.9h-208v680h-47v-680h-207v-40h462V426.9z"/>
		<path d="M3484.7,426.9h-305v290h219v40h-219v310h312v40h-359v-720h352V426.9z"/>
		<path d="M3690.7,386.9h171c121,0,191,81,191,198c0,91-51,172-139,200l194,322h-59l-179-311h-132v311h-47L3690.7,386.9
			L3690.7,386.9z M3737.7,755.9h117c64,0,148-49,148-175c0-84-40-154-141-154h-124V755.9z"/>
	</g>
	<g>
		<polygon class="st1" points="607.7,141.9 651.3,237.6 513.5,316 		"/>
		<polygon class="st2" points="513.5,316 604.8,264.1 638.1,379.3 415.6,462.7 		"/>
		<polygon class="st3" points="651.3,237.6 673.1,281.8 638.1,379.3 604.8,264.1 		"/>
		<polygon class="st4" points="673.1,281.8 762.7,430.6 680.2,524 638.1,379.3 		"/>
		<polygon class="st5" points="415.6,462.7 638.1,379.3 680.2,524 		"/>
		<polygon class="st6" points="415.6,462.7 572.6,499.1 568.3,645.5 379.3,511.5 		"/>
		<polygon class="st5" points="265.5,656.9 526.8,616.1 379.3,511.5 		"/>
		<polygon class="st1" points="680.2,524 936.1,656.9 762.7,430.6 		"/>
		<polygon class="st2" points="265.5,656.9 526.8,616.1 568.3,645.5 349.8,761.7 		"/>
		<polygon class="st7" points="198.8,765.9 349.8,761.7 265.5,656.9 		"/>
		<polygon class="st1" points="568.3,645.5 694.1,770.2 680.2,524 572.6,499.1 		"/>
		<polygon class="st4" points="936.1,656.9 994.9,745.6 804.4,765.9 767,569.1 		"/>
		<polygon class="st3" points="994.9,745.6 1034.4,864.3 804.4,765.9 		"/>
		<polygon class="st3" points="694.1,770.2 804.4,765.9 767,569.1 680.2,524 		"/>
		<polygon class="st5" points="349.8,761.7 396.2,877.3 171.2,889 198.8,765.9 		"/>
		<polygon class="st6" points="396.2,877.3 396.2,1099.6 219.3,886.5 		"/>
		<polygon class="st7" points="171.2,889 219.3,886.5 318.2,1005.6 186.3,1018 		"/>
		<polygon class="st6" points="396.2,877.3 568.3,645.5 349.8,761.7 		"/>
		<polygon class="st5" points="568.3,645.5 615.1,988.4 434.7,825.4 		"/>
		<polygon class="st2" points="396.2,1099.6 615.1,988.4 434.7,825.4 396.2,877.3 		"/>
		<polygon class="st2" points="568.3,645.5 694.1,770.2 782,907.7 607.1,930 		"/>
		<polygon class="st1" points="804.4,765.9 1034.4,864.3 782,907.7 694.1,770.2 		"/>
		<polygon class="st2" points="396.2,1099.6 235.9,1127.9 186.3,1018 318.2,1005.6 		"/>
		<polygon class="st6" points="396.2,1099.6 349.8,1251.1 235.9,1127.9 		"/>
		<polygon class="st4" points="1034.4,864.3 1024.8,1002.5 694.1,918.9 782,907.7 		"/>
		<polygon class="st1" points="607.1,930 615.1,988.4 728.4,1085.2 694.1,918.9 		"/>
		<polygon class="st5" points="547.9,1022.5 615.1,988.4 728.4,1085.2 531.5,1153.6 		"/>
		<polygon class="st1" points="866.5,962.5 972.2,1127.9 1024.8,1002.5 		"/>
		<polygon class="st3" points="728.4,1085.2 933.2,1066.8 866.5,962.5 694.1,918.9 		"/>
		<polygon class="st6" points="396.2,1099.6 531.5,1153.6 547.9,1022.5 		"/>
		<polygon class="st5" points="349.8,1251.1 415.6,1291.1 531.5,1153.6 396.2,1099.6 		"/>
		<polygon class="st2" points="526.8,1190.7 494.9,1319.3 415.6,1291.1 531.5,1153.6 		"/>
		<polygon class="st1" points="728.4,1085.2 818.7,1276.5 933.2,1066.8 		"/>
		<polygon class="st4" points="972.2,1127.9 818.7,1276.5 933.2,1066.8 		"/>
		<polygon class="st2" points="531.5,1153.6 818.7,1276.5 728.4,1085.2 		"/>
		<polygon class="st6" points="494.9,1319.3 531.5,1153.6 818.7,1276.5 656.8,1333 		"/>
	</g>
	<g>
		<path class="st8" d="M4255.3,387.9h162c149,0,198,106,198,215c0,142-87,212-222,212h-91v293h-47V387.9z M4302.3,427.9v347h84
			c126,0,179-69,179-171c0-135-72-176-145-176L4302.3,427.9L4302.3,427.9z"/>
		<path class="st8" d="M4819.3,387.9h171c121,0,191,81,191,198c0,91-51,172-139,200l194,322h-59l-179-311h-132v311h-47V387.9z
			 M4866.3,756.9h117c64,0,148-49,148-175c0-84-40-154-141-154h-124V756.9z"/>
		<path class="st8" d="M5328.3,747.9c0-164,20-374,214-374c212,0,211,252,211,374c0,306-96,374-211,374
			C5428.3,1121.9,5328.3,1055.9,5328.3,747.9z M5542.3,1081.9c96,0,161-75,161-334c0-268-69-334-161-334c-104,0-164,86-164,334
			C5378.3,1016.9,5452.3,1081.9,5542.3,1081.9z"/>
		<path class="st8" d="M5893.3,747.9c0-164,20-374,214-374c212,0,211,252,211,374c0,306-96,374-211,374
			C5993.3,1121.9,5893.3,1055.9,5893.3,747.9z M6107.3,1081.9c96,0,161-75,161-334c0-268-69-334-161-334c-104,0-164,86-164,334
			C5943.3,1016.9,6017.3,1081.9,6107.3,1081.9z"/>
		<path class="st8" d="M6899.3,427.9h-322v284h242v40h-242v356h-47v-720h369V427.9z"/>
	</g>
</g>
</svg>
