<?xml version="1.0" encoding="utf-8"?>
<!-- Generator: Adobe Illustrator 21.1.0, SVG Export Plug-In . SVG Version: 6.00 Build 0)  -->
<svg version="1.1" id="Layer_1" xmlns="http://www.w3.org/2000/svg" xmlns:xlink="http://www.w3.org/1999/xlink" x="0px" y="0px"
	 viewBox="0 0 577 796.7" style="enable-background:new 0 0 577 796.7;" xml:space="preserve">
<style type="text/css">
	.st0{display:none;fill:url(#SVGID_1_);stroke:#03417F;stroke-width:5;}
	.st1{fill:#8088BC;}
	.st2{fill:#5561A6;}
	.st3{fill:#D5D7E9;}
	.st4{fill:#AAB0D3;}
	.st5{fill:#2B3990;}
	.st6{fill:#202B6C;}
	.st7{fill:#161D48;}
</style>
<linearGradient id="SVGID_1_" gradientUnits="userSpaceOnUse" x1="138.9778" y1="498.7097" x2="139.9778" y2="498.7097" gradientTransform="matrix(541 0 0 -745 -75169 371937.0625)">
	<stop  offset="0.3086" style="stop-color:#007FFF"/>
	<stop  offset="1" style="stop-color:#00007F;stop-opacity:0.9961"/>
	<stop  offset="1" style="stop-color:#FF8000"/>
</linearGradient>
<path class="st0" d="M559,485.9v33c-2.2,6.1-0.3,14.6-3,21c-12.4,108-104.8,206.1-212,225c-10.9,4.3-23.8,4.2-35,6h-41
	c-11.2-1.8-24.1-1.7-35-6C117.4,745,23.3,633.6,18,517.9v-34c3.7-22.6,8.3-46.1,17.3-67.7c9-17.4,18.3-34.7,29-51l34-46
	C174.3,228.8,240.9,131.7,291,25.9l13.8,29.3c41.4,100.9,106.7,190.1,178,274c7.7,11.3,16,22.3,25,33c13.4,20.6,26.5,41.4,37,64
	C552,445.3,556.5,465.9,559,485.9z"/>
<polygon class="st1" points="291,25.9 318.3,85.7 232.1,134.8 "/>
<polygon class="st2" points="232.1,134.8 289.2,102.3 310,174.4 170.8,226.5 "/>
<polygon class="st3" points="318.3,85.7 331.9,113.4 310,174.4 289.2,102.3 "/>
<polygon class="st4" points="331.9,113.4 388,206.4 336.3,264.9 310,174.4 "/>
<polygon class="st5" points="170.8,226.5 310,174.4 336.3,264.9 "/>
<polygon class="st6" points="170.8,226.5 269.1,249.3 266.3,340.9 148.1,257 "/>
<polygon class="st5" points="76.9,348 240.4,322.5 148.1,257 "/>
<polygon class="st1" points="336.3,264.9 496.4,348 388,206.4 "/>
<polygon class="st2" points="76.9,348 240.4,322.5 266.3,340.9 129.7,413.5 "/>
<polygon class="st7" points="35.3,416.2 129.7,413.5 76.9,348 "/>
<polygon class="st1" points="266.3,340.9 345,418.9 336.3,264.9 269.1,249.3 "/>
<polygon class="st4" points="496.4,348 533.2,403.5 414,416.2 390.6,293.1 "/>
<polygon class="st3" points="533.2,403.5 557.9,477.7 414,416.2 "/>
<polygon class="st3" points="345,418.9 414,416.2 390.6,293.1 336.3,264.9 "/>
<polygon class="st5" points="129.7,413.5 158.7,485.9 18,493.2 35.3,416.2 "/>
<polygon class="st6" points="158.7,485.9 158.7,624.9 48,491.6 "/>
<polygon class="st7" points="18,493.2 48,491.6 109.9,566.1 27.4,573.8 "/>
<polygon class="st6" points="158.7,485.9 266.3,340.9 129.7,413.5 "/>
<polygon class="st5" points="266.3,340.9 295.6,555.4 182.8,453.4 "/>
<polygon class="st2" points="158.7,624.9 295.6,555.4 182.8,453.4 158.7,485.9 "/>
<polygon class="st2" points="266.3,340.9 345,418.9 400,504.9 290.6,518.8 "/>
<polygon class="st1" points="414,416.2 557.9,477.7 400,504.9 345,418.9 "/>
<polygon class="st2" points="158.7,624.9 58.5,642.6 27.4,573.8 109.9,566.1 "/>
<polygon class="st6" points="158.7,624.9 129.7,719.6 58.5,642.6 "/>
<polygon class="st4" points="557.9,477.7 551.8,564.1 345,511.9 400,504.9 "/>
<polygon class="st1" points="290.6,518.8 295.6,555.4 366.5,615.9 345,511.9 "/>
<polygon class="st5" points="253.6,576.7 295.6,555.4 366.5,615.9 243.3,658.6 "/>
<polygon class="st1" points="452.8,539.1 519,642.6 551.8,564.1 "/>
<polygon class="st3" points="366.5,615.9 494.5,604.3 452.8,539.1 345,511.9 "/>
<polygon class="st6" points="158.7,624.9 243.3,658.6 253.6,576.7 "/>
<polygon class="st5" points="129.7,719.6 170.8,744.7 243.3,658.6 158.7,624.9 "/>
<polygon class="st2" points="240.4,681.9 220.4,762.3 170.8,744.7 243.3,658.6 "/>
<polygon class="st1" points="366.5,615.9 423,735.5 494.5,604.3 "/>
<polygon class="st4" points="519,642.6 423,735.5 494.5,604.3 "/>
<polygon class="st2" points="243.3,658.6 423,735.5 366.5,615.9 "/>
<polygon class="st6" points="220.4,762.3 243.3,658.6 423,735.5 321.7,770.9 "/>
</svg>
