<?xml version="1.0" encoding="utf-8"?>
<!-- Generator: Adobe Illustrator 21.1.0, SVG Export Plug-In . SVG Version: 6.00 Build 0)  -->
<svg version="1.1" id="Layer_1" xmlns="http://www.w3.org/2000/svg" xmlns:xlink="http://www.w3.org/1999/xlink" x="0px" y="0px"
	 viewBox="0 0 541 745" style="enable-background:new 0 0 541 745;" xml:space="preserve">
<style type="text/css">
	.st0{fill:#FFFFFF;}
</style>
<path class="st0" d="M541,460v33c-2.2,6.1-0.3,14.6-3,21c-12.4,108-104.8,206.1-212,225c-10.9,4.3-23.8,4.2-35,6h-41
	c-11.2-1.8-24.1-1.7-35-6C99.4,719.1,5.3,607.7,0,492v-34c3.7-22.6,8.3-46.1,17.3-67.7c9-17.4,18.3-34.7,29-51l34-46
	C156.3,202.9,222.9,105.8,273,0l13.8,29.3c41.4,100.9,106.7,190.1,178,274c7.7,11.3,16,22.3,25,33c13.4,20.6,26.5,41.4,37,64
	C534,419.4,538.5,440,541,460z"/>
</svg>
